# xmcd CD database file
#
# Track frame offsets:
#	150
#	36947
#	63530
#	93902
#	131710
#	162772
#
# Disc length: 2533 seconds
#
# Revision: 0
# Processed by: cddbd v1.5.2PL0 Copyright (c) Steve Scherf et al.
# Submitted via: CDex 1.79
#
DISCID=4b09e306
DTITLE=Wayne Shorter - Speak No Evil
DYEAR=1964
DGENRE=Jazz
TTITLE0=Witch Hunt
TTITLE1=Fee-Fi-Fo-Fum
TTITLE2=Dancd Cadaverous
TTITLE3=Speak No Evil
TTITLE4=Infant Eyes
TTITLE5=Wild Flower
EXTD=YEAR: 1964
EXTT0=
EXTT1=
EXTT2=
EXTT3=
EXTT4=
EXTT5=
PLAYORDER=
